<?xml version="1.0" encoding="UTF-8" standalone="no"?>
<svg
   xmlns:dc="http://purl.org/dc/elements/1.1/"
   xmlns:cc="http://creativecommons.org/ns#"
   xmlns:rdf="http://www.w3.org/1999/02/22-rdf-syntax-ns#"
   xmlns:svg="http://www.w3.org/2000/svg"
   xmlns="http://www.w3.org/2000/svg"
   xmlns:sodipodi="http://sodipodi.sourceforge.net/DTD/sodipodi-0.dtd"
   xmlns:inkscape="http://www.inkscape.org/namespaces/inkscape"
   version="1.1"
   id="Capa_1"
   x="0px"
   y="0px"
   width="50"
   height="50"
   viewBox="0 0 50 50.000001"
   xml:space="preserve"
   sodipodi:docname="arrow.svg"
   inkscape:version="1.0.1 (3bc2e813f5, 2020-09-07)"><metadata
   id="metadata954"><rdf:RDF><cc:Work
       rdf:about=""><dc:format>image/svg+xml</dc:format><dc:type
         rdf:resource="http://purl.org/dc/dcmitype/StillImage" /><dc:title></dc:title></cc:Work></rdf:RDF></metadata><defs
   id="defs952" /><sodipodi:namedview
   pagecolor="#ffffff"
   bordercolor="#666666"
   borderopacity="1"
   objecttolerance="10"
   gridtolerance="10"
   guidetolerance="10"
   inkscape:pageopacity="0"
   inkscape:pageshadow="2"
   inkscape:window-width="1366"
   inkscape:window-height="705"
   id="namedview950"
   showgrid="false"
   units="px"
   width="50mm"
   inkscape:zoom="1.0591876"
   inkscape:cx="243.5"
   inkscape:cy="92.440833"
   inkscape:window-x="-8"
   inkscape:window-y="-8"
   inkscape:window-maximized="1"
   inkscape:current-layer="Capa_1" />
<g
   id="g917"
   transform="matrix(0.08302123,0,0,0.13241181,4.7205995,-6.8339853)"
   style="opacity:0.999;fill:#ffffff;fill-opacity:1;stroke:#ffffff;stroke-width:11.8237;stroke-miterlimit:4;stroke-dasharray:none;stroke-opacity:1"
   inkscape:transform-center-y="1.8864019">
	<path
   d="M 482,234.839 365.5,167.578 c -4.783,-2.761 -10.898,-1.122 -13.66,3.66 -2.762,4.783 -1.122,10.898 3.66,13.66 l 84.213,48.62 H 10 c -5.523,0 -10,4.478 -10,10 0,5.521 4.477,10 10,10 H 439.646 L 355.5,302.101 c -4.783,2.762 -6.422,8.877 -3.66,13.66 1.853,3.208 5.213,5.002 8.669,5.002 1.696,0 3.416,-0.434 4.991,-1.342 L 482,252.159 c 3.094,-1.786 5,-5.088 5,-8.66 0,-3.572 -1.906,-6.874 -5,-8.66 z"
   id="path915"
   style="fill:#ffffff;fill-opacity:1;stroke:#ffffff;stroke-width:11.8237;stroke-miterlimit:4;stroke-dasharray:none;stroke-opacity:1" />
</g>
<g
   id="g919">
</g>
<g
   id="g921">
</g>
<g
   id="g923">
</g>
<g
   id="g925">
</g>
<g
   id="g927">
</g>
<g
   id="g929">
</g>
<g
   id="g931">
</g>
<g
   id="g933">
</g>
<g
   id="g935">
</g>
<g
   id="g937">
</g>
<g
   id="g939">
</g>
<g
   id="g941">
</g>
<g
   id="g943">
</g>
<g
   id="g945">
</g>
<g
   id="g947">
</g>
</svg>
